<svg width="24" height="41" viewBox="0 0 24 41" fill="none" xmlns="http://www.w3.org/2000/svg">
<path fill-rule="evenodd" clip-rule="evenodd" d="M11.5713 12.4188C13.1696 12.4188 14.732 12.8927 16.061 13.7807C17.3899 14.6687 18.4257 15.9308 19.0374 17.4075C19.649 18.8841 19.809 20.509 19.4972 22.0766C19.1854 23.6442 18.4158 25.0841 17.2856 26.2143C16.1554 27.3445 14.7155 28.1141 13.1479 28.4259C11.5803 28.7378 9.95539 28.5777 8.47874 27.9661C7.00209 27.3544 5.73998 26.3186 4.852 24.9897C3.96403 23.6607 3.49007 22.0983 3.49007 20.5C3.48963 19.4386 3.69836 18.3876 4.10433 17.4069C4.51029 16.4263 5.10553 15.5352 5.85603 14.7847C6.60653 14.0343 7.49757 13.439 8.47822 13.033C9.45888 12.6271 10.5099 12.4184 11.5713 12.4188ZM4.43099 1.13357e-05H18.7116C19.2934 -0.000428129 19.8697 0.113907 20.4073 0.336471C20.9449 0.559034 21.4333 0.885454 21.8446 1.29704C22.2558 1.70863 22.5819 2.1973 22.8041 2.73507C23.0262 3.27284 23.1401 3.84915 23.1392 4.431V36.569C23.1401 37.1509 23.0262 37.7272 22.8041 38.2649C22.5819 38.8027 22.2558 39.2914 21.8446 39.703C21.4333 40.1146 20.9449 40.441 20.4073 40.6635C19.8697 40.8861 19.2934 41.0004 18.7116 41H4.43099C3.25582 41 2.12878 40.5332 1.29781 39.7022C0.466836 38.8712 1.26778e-06 37.7442 1.26778e-06 36.569V4.42433C-0.000439239 3.84263 0.11392 3.26657 0.336524 2.72915C0.559128 2.19173 0.885601 1.70353 1.29723 1.29252C1.70886 0.881509 2.19756 0.555773 2.73531 0.333979C3.27306 0.112185 3.8493 -0.00130588 4.43099 1.13357e-05ZM1.30461 34.8473H21.8313V4.81804H1.30461V34.8473ZM11.5646 36.2354C11.9251 36.2354 12.2774 36.3423 12.5771 36.5426C12.8767 36.7429 13.1102 37.0277 13.248 37.3607C13.3858 37.6938 13.4217 38.0603 13.3511 38.4138C13.2806 38.7673 13.1067 39.0919 12.8516 39.3465C12.5965 39.6012 12.2716 39.7744 11.918 39.8443C11.5644 39.9142 11.198 39.8777 10.8651 39.7393C10.5323 39.6009 10.248 39.3669 10.0482 39.0668C9.84846 38.7668 9.74218 38.4143 9.74284 38.0538C9.74284 37.8147 9.78998 37.578 9.88158 37.3571C9.97317 37.1363 10.1074 36.9357 10.2766 36.7668C10.4458 36.5979 10.6467 36.464 10.8677 36.3728C11.0887 36.2816 11.3255 36.2349 11.5646 36.2354ZM12.8692 14.7778L12.3721 19.3522H14.6109L10.1632 26.7695L11.1642 21.5677L8.51164 21.6144L12.9293 14.2306L12.8692 14.7778Z" fill="#4B3CFF"/>
</svg>
