<svg width="30" height="31" viewBox="0 0 30 31" fill="none" xmlns="http://www.w3.org/2000/svg">
<g clip-path="url(#clip0_21_117)">
<path d="M24.129 26.2834C24.6017 26.2834 24.9849 25.8874 24.9849 25.399C24.9849 24.9106 24.6017 24.5146 24.129 24.5146C23.6564 24.5146 23.2732 24.9106 23.2732 25.399C23.2732 25.8874 23.6564 26.2834 24.129 26.2834Z" fill="#D0E8FF"/>
<path d="M2.16241 22.7459V28.0521H2.73297H3.87409H26.1259H27.2671H27.8376V22.7459H15.8559H14.7147H2.16241ZM5.01521 26.873H3.87409V23.9251H5.01521V26.873ZM7.86801 26.873H6.72689V23.9251H7.86801V26.873ZM10.7208 26.873H9.57969V23.9251H10.7208V26.873ZM24.129 23.3355C25.23 23.3355 26.1259 24.2613 26.1259 25.399C26.1259 26.5367 25.23 27.4625 24.129 27.4625C23.028 27.4625 22.132 26.5367 22.132 25.399C22.132 24.2613 23.028 23.3355 24.129 23.3355Z" fill="#5CB0FF"/>
<path d="M24.129 17.4397C24.6017 17.4397 24.9849 17.0438 24.9849 16.5553C24.9849 16.0669 24.6017 15.671 24.129 15.671C23.6564 15.671 23.2732 16.0669 23.2732 16.5553C23.2732 17.0438 23.6564 17.4397 24.129 17.4397Z" fill="#D0E8FF"/>
<path d="M2.16241 13.9022V19.2084H27.8376V13.9022H15.8559H14.7147H2.16241ZM5.01521 18.0293H3.87409V15.0814H5.01521V18.0293ZM7.86801 18.0293H6.72689V15.0814H7.86801V18.0293ZM10.7208 18.0293H9.57969V15.0814H10.7208V18.0293ZM24.129 14.4918C25.23 14.4918 26.1259 15.4176 26.1259 16.5553C26.1259 17.693 25.23 18.6189 24.129 18.6189C23.028 18.6189 22.132 17.693 22.132 16.5553C22.132 15.4176 23.028 14.4918 24.129 14.4918Z" fill="#D0E8FF"/>
<path d="M24.129 8.59601C24.6017 8.59601 24.9849 8.20006 24.9849 7.71164C24.9849 7.22322 24.6017 6.82727 24.129 6.82727C23.6564 6.82727 23.2732 7.22322 23.2732 7.71164C23.2732 8.20006 23.6564 8.59601 24.129 8.59601Z" fill="#D0E8FF"/>
<path d="M27.8376 5.05853H2.16241V10.3647H27.8376V5.05853ZM5.01521 9.18558H3.87409V6.23769H5.01521V9.18558ZM7.86801 9.18558H6.72689V6.23769H7.86801V9.18558ZM10.7208 9.18558H9.57969V6.23769H10.7208V9.18558ZM24.129 9.77516C23.028 9.77516 22.132 8.84935 22.132 7.71164C22.132 6.57393 23.028 5.64811 24.129 5.64811C25.23 5.64811 26.1259 6.57393 26.1259 7.71164C26.1259 8.84935 25.23 9.77516 24.129 9.77516Z" fill="#5CB0FF"/>
<path d="M28.9787 11.5439V3.87939H1.0213V11.5439H14.7147V12.7231H1.0213V20.3876H14.7147V21.5668H1.0213V29.2313H2.73298V31H3.8741V29.2313H26.1259V31H27.2671V29.2313H28.9787V21.5668H15.8559V20.3876H28.9787V12.7231H15.8559V11.5439H28.9787ZM27.8376 22.7459V28.0521H27.2671H26.1259H3.8741H2.73298H2.16242V22.7459H14.7147H15.8559H27.8376ZM27.8376 13.9022V19.2084H2.16242V13.9022H14.7147H15.8559H27.8376ZM2.16242 5.05855H27.8376V10.3648H2.16242V5.05855Z" fill="#1C71DA"/>
<path d="M24.129 5.64813C23.028 5.64813 22.1321 6.57395 22.1321 7.71166C22.1321 8.84937 23.028 9.77518 24.129 9.77518C25.23 9.77518 26.126 8.84937 26.126 7.71166C26.126 6.57395 25.23 5.64813 24.129 5.64813ZM24.129 8.59603C23.6571 8.59603 23.2732 8.19933 23.2732 7.71166C23.2732 7.22399 23.6571 6.82729 24.129 6.82729C24.601 6.82729 24.9849 7.22399 24.9849 7.71166C24.9849 8.19933 24.601 8.59603 24.129 8.59603Z" fill="#1C71DA"/>
<path d="M5.0152 6.23773H3.87408V9.18562H5.0152V6.23773Z" fill="#1C71DA"/>
<path d="M7.86805 6.23773H6.72693V9.18562H7.86805V6.23773Z" fill="white"/>
<path d="M10.7208 6.23773H9.57971V9.18562H10.7208V6.23773Z" fill="#1C71DA"/>
<path d="M24.129 18.6189C25.23 18.6189 26.126 17.6931 26.126 16.5553C26.126 15.4176 25.23 14.4918 24.129 14.4918C23.028 14.4918 22.1321 15.4176 22.1321 16.5553C22.1321 17.6931 23.028 18.6189 24.129 18.6189ZM24.129 15.671C24.601 15.671 24.9849 16.0677 24.9849 16.5553C24.9849 17.043 24.601 17.4397 24.129 17.4397C23.6571 17.4397 23.2732 17.043 23.2732 16.5553C23.2732 16.0677 23.6571 15.671 24.129 15.671Z" fill="#1C71DA"/>
<path d="M5.0152 15.0814H3.87408V18.0293H5.0152V15.0814Z" fill="#1C71DA"/>
<path d="M7.86805 15.0814H6.72693V18.0293H7.86805V15.0814Z" fill="#1C71DA"/>
<path d="M10.7208 15.0814H9.57971V18.0293H10.7208V15.0814Z" fill="#1C71DA"/>
<path d="M24.129 27.4626C25.23 27.4626 26.126 26.5367 26.126 25.399C26.126 24.2613 25.23 23.3355 24.129 23.3355C23.028 23.3355 22.1321 24.2613 22.1321 25.399C22.1321 26.5367 23.028 27.4626 24.129 27.4626ZM24.129 24.5147C24.601 24.5147 24.9849 24.9114 24.9849 25.399C24.9849 25.8867 24.601 26.2834 24.129 26.2834C23.6571 26.2834 23.2732 25.8867 23.2732 25.399C23.2732 24.9114 23.6571 24.5147 24.129 24.5147Z" fill="#1C71DA"/>
<path d="M5.0152 23.925H3.87408V26.8729H5.0152V23.925Z" fill="#1C71DA"/>
<path d="M7.86805 23.925H6.72693V26.8729H7.86805V23.925Z" fill="white"/>
<path d="M10.7208 23.925H9.57971V26.8729H10.7208V23.925Z" fill="#1C71DA"/>
<path d="M12.4685 3.26383C12.3225 3.26383 12.1765 3.20626 12.0651 3.09117C11.8422 2.86087 11.8422 2.48764 12.0651 2.25733L14.0823 0.172862C14.3052 -0.0572951 14.6663 -0.0572951 14.8892 0.172862C15.112 0.403166 15.112 0.776399 14.8892 1.0067L12.872 3.09117C12.7606 3.20626 12.6146 3.26383 12.4685 3.26383Z" fill="#FF5D5D"/>
<path d="M14.4858 3.26361C14.3397 3.26361 14.1937 3.20603 14.0823 3.09095L12.0651 1.0064C11.8422 0.776099 11.8422 0.402793 12.0651 0.172562C12.288 -0.0575945 12.6492 -0.0574471 12.872 0.172562L14.8892 2.25711C15.112 2.48741 15.112 2.86072 14.8892 3.09095C14.7778 3.20602 14.6317 3.26361 14.4858 3.26361Z" fill="#FF5D5D"/>
<path d="M16.1771 18.5929C15.076 18.5929 14.1802 17.6672 14.1802 16.5293C14.1802 15.3915 15.076 14.4658 16.1771 14.4658C17.2783 14.4658 18.1741 15.3915 18.1741 16.5293C18.1741 17.6672 17.2783 18.5929 16.1771 18.5929ZM16.1771 15.645C15.7052 15.645 15.3213 16.0417 15.3213 16.5293C15.3213 17.017 15.7052 17.4137 16.1771 17.4137C16.6491 17.4137 17.033 17.017 17.033 16.5293C17.033 16.0417 16.6491 15.645 16.1771 15.645Z" fill="#00D40B"/>
<path d="M19.2173 27.8235C19.0712 27.8235 18.9252 27.766 18.8138 27.6509L17.2001 25.9833C16.9773 25.753 16.9773 25.3798 17.2001 25.1495L18.8138 23.4819C19.0367 23.2518 19.398 23.2518 19.6207 23.4819L21.2345 25.1495C21.3416 25.2601 21.4017 25.41 21.4017 25.5664C21.4017 25.7228 21.3416 25.8727 21.2345 25.9833L19.6207 27.6509C19.5093 27.766 19.3633 27.8235 19.2173 27.8235ZM18.4104 25.5664L19.2173 26.4002L20.0242 25.5664L19.2173 24.7326L18.4104 25.5664Z" fill="#FFC504"/>
</g>
<defs>
<clipPath id="clip0_21_117">
<rect width="30" height="31" fill="white"/>
</clipPath>
</defs>
</svg>
