<svg width="47" height="52" viewBox="0 0 47 52" fill="none" xmlns="http://www.w3.org/2000/svg">
<rect x="1.5" y="1.7973" width="44" height="47.8108" stroke="#4B3CFF" stroke-width="3"/>
<path d="M46.6258 34.4269H0.374351C0.326141 34.4269 0.278397 34.4167 0.233848 34.3967C0.1893 34.3768 0.148821 34.3476 0.114727 34.3107C0.0806332 34.2739 0.0535926 34.2301 0.0351517 34.182C0.0167109 34.1338 0.00723146 34.0822 0.0072556 34.0301C0.00723147 33.978 0.0167102 33.9264 0.0351499 33.8782C0.0535897 33.83 0.0806288 33.7863 0.114722 33.7494C0.148814 33.7126 0.189292 33.6833 0.233841 33.6634C0.27839 33.6435 0.326137 33.6332 0.374351 33.6332H46.6258C46.674 33.6332 46.7218 33.6435 46.7663 33.6634C46.8109 33.6833 46.8513 33.7126 46.8854 33.7494C46.9195 33.7863 46.9466 33.83 46.965 33.8782C46.9834 33.9264 46.9929 33.978 46.9928 34.0301C46.9929 34.0822 46.9834 34.1338 46.965 34.182C46.9465 34.2301 46.9195 34.2739 46.8854 34.3107C46.8513 34.3476 46.8109 34.3768 46.7663 34.3967C46.7218 34.4166 46.674 34.4269 46.6258 34.4269ZM23.5 38.3938C22.6905 38.3938 22.0317 37.6822 22.0317 36.8064C22.0317 35.9306 22.6905 35.2191 23.5 35.2191C24.3095 35.2191 24.9684 35.9306 24.9684 36.8064C24.9684 37.6822 24.3095 38.3938 23.5 38.3938ZM23.5 36.0128C23.0949 36.0128 22.7658 36.3693 22.7658 36.8064C22.7658 37.2436 23.0949 37.6001 23.5 37.6001C23.905 37.6001 24.2342 37.2436 24.2342 36.8064C24.2342 36.3693 23.905 36.0128 23.5 36.0128ZM17.2641 48.713C17.2091 48.7129 17.1549 48.6995 17.1054 48.6738C17.0559 48.6481 17.0123 48.6107 16.978 48.5644C16.9436 48.5181 16.9192 48.464 16.9067 48.4062C16.8942 48.3484 16.8938 48.2882 16.9056 48.2302L18.3739 41.0871C18.4177 40.874 18.6126 40.7406 18.8119 40.7856C18.9069 40.8085 18.9896 40.8713 19.0419 40.96C19.0942 41.0488 19.1118 41.1564 19.0909 41.2591L17.6226 48.4022C17.6045 48.4904 17.559 48.5692 17.4938 48.6257C17.4287 48.6822 17.3476 48.713 17.2641 48.713ZM29.7359 48.713C29.6524 48.713 29.5714 48.6822 29.5062 48.6257C29.4411 48.5692 29.3957 48.4904 29.3776 48.4022L27.9094 41.2591C27.8884 41.1564 27.906 41.0488 27.9582 40.96C28.0105 40.8713 28.0932 40.8085 28.1882 40.7856C28.389 40.7406 28.5824 40.874 28.6261 41.0871L30.0945 48.2302C30.1063 48.2882 30.106 48.3484 30.0934 48.4062C30.0809 48.4641 30.0566 48.5181 30.0222 48.5644C29.9878 48.6108 29.9442 48.6482 29.8947 48.6739C29.8451 48.6996 29.7909 48.713 29.7359 48.713Z" fill="#4B3CFF"/>
<path d="M30.8416 48.713H16.1585C16.1103 48.7131 16.0626 48.7028 16.018 48.6829C15.9735 48.663 15.933 48.6337 15.8989 48.5969C15.8648 48.56 15.8378 48.5163 15.8193 48.4681C15.8009 48.4199 15.7914 48.3683 15.7914 48.3162C15.7914 48.2641 15.8009 48.2124 15.8193 48.1643C15.8378 48.1161 15.8648 48.0724 15.8989 48.0355C15.933 47.9987 15.9735 47.9695 16.018 47.9495C16.0626 47.9296 16.1103 47.9194 16.1585 47.9194H30.8416C30.8898 47.9194 30.9376 47.9296 30.9821 47.9496C31.0267 47.9695 31.0671 47.9987 31.1012 48.0356C31.1353 48.0724 31.1623 48.1162 31.1808 48.1643C31.1992 48.2125 31.2087 48.2641 31.2086 48.3162C31.2087 48.3683 31.1992 48.4199 31.1808 48.4681C31.1623 48.5162 31.1353 48.56 31.1012 48.5969C31.0672 48.6337 31.0267 48.6629 30.9821 48.6829C30.9376 48.7028 30.8898 48.7131 30.8416 48.713ZM44.4233 32.0583H2.57674C2.52852 32.0583 2.48078 32.0481 2.43623 32.0282C2.39168 32.0082 2.3512 31.979 2.31711 31.9421C2.28301 31.9053 2.25597 31.8615 2.23753 31.8134C2.2191 31.7652 2.20962 31.7136 2.20964 31.6614V5.47016C2.20962 5.41804 2.2191 5.36642 2.23753 5.31826C2.25597 5.2701 2.28301 5.22634 2.31711 5.18948C2.3512 5.15263 2.39168 5.12339 2.43623 5.10346C2.48078 5.08352 2.52852 5.07328 2.57674 5.0733H44.4233C44.6262 5.0733 44.7904 5.25084 44.7904 5.47016V31.6614C44.7905 31.7136 44.781 31.7652 44.7625 31.8134C44.7441 31.8615 44.7171 31.9053 44.6829 31.9422C44.6488 31.979 44.6084 32.0083 44.5638 32.0282C44.5192 32.0481 44.4715 32.0583 44.4233 32.0583ZM2.94383 31.2646H44.0563V5.86702H2.94383V31.2646Z" fill="#4B3CFF"/>
<path d="M44.4233 39.9952H2.57674C1.16004 39.9952 0.00725555 38.7488 0.00725555 37.2173V5.47021C0.00725555 3.93864 1.16013 2.69238 2.57674 2.69238H44.4233C45.8401 2.69238 46.9928 3.93874 46.9928 5.47021V37.2172C46.9928 38.7488 45.84 39.9952 44.4233 39.9952ZM2.57674 3.486C1.56441 3.486 0.741355 4.37619 0.741355 5.47021V37.2172C0.741355 38.3116 1.56441 39.2013 2.57674 39.2013H44.4233C45.4357 39.2013 46.2587 38.3116 46.2587 37.2172V5.47021C46.2587 4.37619 45.4357 3.486 44.4233 3.486H2.57674Z" fill="#4B3CFF"/>
<path d="M44.4233 41.5701H2.57674C1.13571 41.5701 0.0072556 40.3501 0.0072556 38.7922V37.2049C0.00723147 37.1528 0.0167102 37.1011 0.0351499 37.053C0.0535897 37.0048 0.0806288 36.9611 0.114722 36.9242C0.148814 36.8874 0.189292 36.8581 0.233841 36.8382C0.27839 36.8182 0.326137 36.808 0.374351 36.808C0.422566 36.808 0.470312 36.8182 0.514861 36.8382C0.55941 36.8581 0.599888 36.8874 0.633981 36.9242C0.668074 36.9611 0.695113 37.0048 0.713553 37.053C0.731992 37.1011 0.741471 37.1528 0.741447 37.2049V38.7922C0.741447 39.9052 1.54733 40.7763 2.57683 40.7763H44.4234C45.453 40.7763 46.2587 39.9052 46.2587 38.7922V37.2173C46.2587 37.1652 46.2682 37.1135 46.2866 37.0654C46.3051 37.0172 46.3321 36.9734 46.3662 36.9366C46.4003 36.8997 46.4408 36.8705 46.4854 36.8506C46.5299 36.8306 46.5777 36.8204 46.6259 36.8204C46.6741 36.8204 46.7219 36.8307 46.7664 36.8506C46.811 36.8705 46.8514 36.8998 46.8855 36.9366C46.9196 36.9735 46.9466 37.0172 46.9651 37.0654C46.9835 37.1136 46.993 37.1652 46.9929 37.2173V38.7922C46.9928 40.3501 45.8644 41.5701 44.4233 41.5701ZM4.04503 32.0583C3.99682 32.0583 3.94907 32.0481 3.90452 32.0282C3.85997 32.0082 3.8195 31.979 3.7854 31.9421C3.75131 31.9053 3.72427 31.8615 3.70583 31.8134C3.68739 31.7652 3.67791 31.7136 3.67794 31.6614V5.47016C3.67791 5.41804 3.68739 5.36642 3.70583 5.31826C3.72427 5.2701 3.75131 5.22634 3.7854 5.18948C3.8195 5.15263 3.85997 5.12339 3.90452 5.10346C3.94907 5.08352 3.99682 5.07328 4.04503 5.0733C4.09325 5.07328 4.14099 5.08352 4.18554 5.10346C4.23009 5.12339 4.27057 5.15263 4.30466 5.18948C4.33876 5.22634 4.36579 5.2701 4.38423 5.31826C4.40267 5.36642 4.41215 5.41804 4.41213 5.47016V31.6614C4.41215 31.7136 4.40267 31.7652 4.38423 31.8134C4.36579 31.8615 4.33876 31.9053 4.30466 31.9421C4.27057 31.979 4.23009 32.0082 4.18554 32.0282C4.14099 32.0481 4.09325 32.0583 4.04503 32.0583Z" fill="#4B3CFF"/>
<path d="M3.31093 8.24801H2.57674C2.37387 8.24801 2.20964 8.07056 2.20964 7.85114C2.20964 7.63173 2.37387 7.45428 2.57674 7.45428H3.31093C3.5138 7.45428 3.67802 7.63173 3.67802 7.85114C3.67802 8.07056 3.5138 8.24801 3.31093 8.24801ZM3.31093 10.6291H2.57674C2.37387 10.6291 2.20964 10.4515 2.20964 10.2322C2.20964 10.0129 2.37387 9.83535 2.57674 9.83535H3.31093C3.5138 9.83535 3.67802 10.0129 3.67802 10.2322C3.67802 10.4515 3.5138 10.6291 3.31093 10.6291ZM3.31093 13.0101H2.57674C2.37387 13.0101 2.20964 12.8327 2.20964 12.6133C2.20964 12.3938 2.37387 12.2164 2.57674 12.2164H3.31093C3.5138 12.2164 3.67802 12.3938 3.67802 12.6133C3.67802 12.8327 3.5138 13.0101 3.31093 13.0101ZM3.31093 15.3912H2.57674C2.37387 15.3912 2.20964 15.2137 2.20964 14.9943C2.20964 14.775 2.37387 14.5975 2.57674 14.5975H3.31093C3.5138 14.5975 3.67802 14.775 3.67802 14.9943C3.67802 15.2137 3.5138 15.3912 3.31093 15.3912ZM3.31093 17.7722H2.57674C2.37387 17.7722 2.20964 17.5947 2.20964 17.3753C2.20964 17.1559 2.37387 16.9784 2.57674 16.9784H3.31093C3.5138 16.9784 3.67802 17.1559 3.67802 17.3753C3.67802 17.5947 3.5138 17.7722 3.31093 17.7722ZM3.31093 20.1532H2.57674C2.52852 20.1532 2.48078 20.143 2.43623 20.1231C2.39168 20.1031 2.3512 20.0739 2.31711 20.037C2.28301 20.0002 2.25597 19.9564 2.23753 19.9083C2.2191 19.8601 2.20962 19.8085 2.20964 19.7564C2.20962 19.7042 2.2191 19.6526 2.23753 19.6045C2.25597 19.5563 2.28301 19.5125 2.31711 19.4757C2.3512 19.4388 2.39168 19.4096 2.43623 19.3897C2.48078 19.3697 2.52852 19.3595 2.57674 19.3595H3.31093C3.35914 19.3595 3.40689 19.3697 3.45144 19.3897C3.49599 19.4096 3.53646 19.4388 3.57056 19.4757C3.60465 19.5125 3.63169 19.5563 3.65013 19.6045C3.66857 19.6526 3.67805 19.7042 3.67802 19.7564C3.67804 19.8085 3.66855 19.8601 3.6501 19.9082C3.63166 19.9564 3.60462 20.0002 3.57053 20.037C3.53644 20.0739 3.49597 20.1031 3.45142 20.123C3.40688 20.143 3.35914 20.1532 3.31093 20.1532ZM3.31093 22.5342H2.57674C2.52852 22.5342 2.48078 22.524 2.43623 22.504C2.39168 22.4841 2.3512 22.4549 2.31711 22.418C2.28301 22.3811 2.25597 22.3374 2.23753 22.2892C2.2191 22.2411 2.20962 22.1894 2.20964 22.1373C2.20962 22.0852 2.2191 22.0336 2.23753 21.9854C2.25597 21.9373 2.28301 21.8935 2.31711 21.8566C2.3512 21.8198 2.39168 21.7906 2.43623 21.7706C2.48078 21.7507 2.52852 21.7404 2.57674 21.7405H3.31093C3.35914 21.7404 3.40689 21.7507 3.45144 21.7706C3.49599 21.7906 3.53646 21.8198 3.57056 21.8566C3.60465 21.8935 3.63169 21.9373 3.65013 21.9854C3.66857 22.0336 3.67805 22.0852 3.67802 22.1373C3.67805 22.1894 3.66857 22.2411 3.65013 22.2892C3.63169 22.3374 3.60465 22.3811 3.57056 22.418C3.53646 22.4549 3.49599 22.4841 3.45144 22.504C3.40689 22.524 3.35914 22.5342 3.31093 22.5342ZM3.31093 24.9152H2.57674C2.52852 24.9153 2.48078 24.905 2.43623 24.8851C2.39168 24.8652 2.3512 24.8359 2.31711 24.7991C2.28301 24.7622 2.25597 24.7184 2.23753 24.6703C2.2191 24.6221 2.20962 24.5705 2.20964 24.5184C2.20962 24.4663 2.2191 24.4146 2.23753 24.3665C2.25597 24.3183 2.28301 24.2746 2.31711 24.2377C2.3512 24.2008 2.39168 24.1716 2.43623 24.1517C2.48078 24.1317 2.52852 24.1215 2.57674 24.1215H3.31093C3.35914 24.1215 3.40689 24.1317 3.45144 24.1517C3.49599 24.1716 3.53646 24.2008 3.57056 24.2377C3.60465 24.2746 3.63169 24.3183 3.65013 24.3665C3.66857 24.4146 3.67805 24.4663 3.67802 24.5184C3.67804 24.5705 3.66855 24.6221 3.6501 24.6703C3.63166 24.7184 3.60462 24.7622 3.57053 24.799C3.53644 24.8359 3.49597 24.8651 3.45142 24.8851C3.40688 24.905 3.35914 24.9153 3.31093 24.9152ZM3.31093 27.2963H2.57674C2.52852 27.2963 2.48078 27.2861 2.43623 27.2661C2.39168 27.2462 2.3512 27.217 2.31711 27.1801C2.28301 27.1433 2.25597 27.0995 2.23753 27.0513C2.2191 27.0032 2.20962 26.9516 2.20964 26.8994C2.20962 26.8473 2.2191 26.7957 2.23754 26.7476C2.25598 26.6994 2.28302 26.6556 2.31711 26.6188C2.35121 26.5819 2.39168 26.5527 2.43623 26.5328C2.48078 26.5129 2.52853 26.5026 2.57674 26.5027H3.31093C3.35914 26.5026 3.40688 26.5129 3.45143 26.5328C3.49598 26.5527 3.53646 26.5819 3.57055 26.6188C3.60465 26.6556 3.63169 26.6994 3.65013 26.7476C3.66857 26.7957 3.67805 26.8473 3.67802 26.8994C3.67805 26.9516 3.66857 27.0032 3.65013 27.0513C3.63169 27.0995 3.60465 27.1433 3.57056 27.1801C3.53646 27.217 3.49599 27.2462 3.45144 27.2661C3.40689 27.2861 3.35914 27.2963 3.31093 27.2963ZM3.31093 29.6774H2.57674C2.37387 29.6774 2.20964 29.4998 2.20964 29.2805C2.20964 29.0612 2.37387 28.8836 2.57674 28.8836H3.31093C3.5138 28.8836 3.67802 29.0612 3.67802 29.2805C3.67802 29.4998 3.5138 29.6774 3.31093 29.6774ZM9.18409 8.24801H6.24751C6.04464 8.24801 5.88041 8.07056 5.88041 7.85114C5.88041 7.63173 6.04455 7.45428 6.24751 7.45428H9.18409C9.38696 7.45428 9.55119 7.63173 9.55119 7.85114C9.55119 8.07056 9.38696 8.24801 9.18409 8.24801ZM20.9304 10.6291H12.1207C11.9178 10.6291 11.7536 10.4515 11.7536 10.2322C11.7536 10.0129 11.9177 9.83535 12.1207 9.83535H20.9304C21.1334 9.83535 21.2975 10.0129 21.2975 10.2322C21.2975 10.4515 21.1334 10.6291 20.9304 10.6291ZM10.6524 10.6291H6.98161C6.77874 10.6291 6.61451 10.4515 6.61451 10.2322C6.61451 10.0129 6.77874 9.83535 6.98161 9.83535H10.6524C10.8553 9.83535 11.0195 10.0129 11.0195 10.2322C11.0195 10.4515 10.8553 10.6291 10.6524 10.6291ZM20.9304 13.0101H20.1963C19.9935 13.0101 19.8292 12.8327 19.8292 12.6133C19.8292 12.3938 19.9935 12.2164 20.1963 12.2164H20.9304C21.1334 12.2164 21.2975 12.3938 21.2975 12.6133C21.2975 12.8327 21.1334 13.0101 20.9304 13.0101ZM18.728 13.0101H7.7158C7.51293 13.0101 7.34871 12.8327 7.34871 12.6133C7.34871 12.3938 7.51284 12.2164 7.7158 12.2164H18.728C18.9309 12.2164 19.0951 12.3938 19.0951 12.6133C19.0951 12.8327 18.9309 13.0101 18.728 13.0101ZM9.91819 17.7722H7.7158C7.51293 17.7722 7.34871 17.5947 7.34871 17.3753C7.34871 17.1559 7.51284 16.9784 7.7158 16.9784H9.91828C10.1212 16.9784 10.2854 17.1559 10.2854 17.3753C10.2854 17.5947 10.1211 17.7722 9.91819 17.7722ZM20.9304 17.7722H11.3866C11.1837 17.7722 11.0195 17.5947 11.0195 17.3753C11.0195 17.1559 11.1837 16.9784 11.3866 16.9784H20.9305C21.1335 16.9784 21.2976 17.1559 21.2976 17.3753C21.2976 17.5947 21.1334 17.7722 20.9304 17.7722ZM20.9304 15.3912H8.4499C8.24703 15.3912 8.0828 15.2137 8.0828 14.9943C8.0828 14.775 8.24703 14.5975 8.4499 14.5975H20.9304C21.1334 14.5975 21.2975 14.775 21.2975 14.9943C21.2975 15.2137 21.1334 15.3912 20.9304 15.3912ZM20.9304 20.1532H17.9938C17.9456 20.1532 17.8979 20.143 17.8533 20.1231C17.8088 20.1031 17.7683 20.0739 17.7342 20.037C17.7001 20.0002 17.6731 19.9564 17.6546 19.9083C17.6362 19.8601 17.6267 19.8085 17.6267 19.7564C17.6267 19.7042 17.6362 19.6526 17.6546 19.6045C17.6731 19.5563 17.7001 19.5125 17.7342 19.4757C17.7683 19.4388 17.8088 19.4096 17.8533 19.3897C17.8979 19.3697 17.9456 19.3595 17.9938 19.3595H20.9304C20.9786 19.3595 21.0264 19.3697 21.0709 19.3897C21.1155 19.4096 21.156 19.4388 21.1901 19.4757C21.2241 19.5125 21.2512 19.5563 21.2696 19.6045C21.2881 19.6526 21.2975 19.7042 21.2975 19.7564C21.2975 19.8085 21.2881 19.8601 21.2696 19.9083C21.2512 19.9564 21.2241 20.0002 21.1901 20.037C21.156 20.0739 21.1155 20.1031 21.0709 20.1231C21.0264 20.143 20.9786 20.1532 20.9304 20.1532ZM18.728 22.5342H6.98161C6.93339 22.5342 6.88565 22.524 6.8411 22.504C6.79655 22.4841 6.75607 22.4549 6.72198 22.418C6.68789 22.3811 6.66085 22.3374 6.64241 22.2892C6.62397 22.2411 6.61449 22.1894 6.61451 22.1373C6.61449 22.0852 6.62397 22.0336 6.64241 21.9854C6.66085 21.9373 6.68789 21.8935 6.72198 21.8566C6.75607 21.8198 6.79655 21.7906 6.8411 21.7706C6.88565 21.7507 6.93339 21.7404 6.98161 21.7405H18.728C18.7762 21.7404 18.824 21.7507 18.8685 21.7706C18.9131 21.7906 18.9536 21.8198 18.9877 21.8566C19.0218 21.8935 19.0488 21.9373 19.0672 21.9854C19.0857 22.0336 19.0951 22.0852 19.0951 22.1373C19.0951 22.1894 19.0857 22.2411 19.0672 22.2892C19.0488 22.3374 19.0218 22.3811 18.9877 22.418C18.9536 22.4549 18.9131 22.4841 18.8685 22.504C18.824 22.524 18.7762 22.5342 18.728 22.5342ZM12.8549 27.2963H6.9817C6.93349 27.2963 6.88574 27.2861 6.84119 27.2661C6.79664 27.2462 6.75616 27.217 6.72207 27.1801C6.68798 27.1433 6.66094 27.0995 6.6425 27.0513C6.62406 27.0032 6.61458 26.9516 6.61461 26.8994C6.61458 26.8473 6.62406 26.7957 6.6425 26.7476C6.66094 26.6994 6.68798 26.6556 6.72208 26.6188C6.75617 26.5819 6.79665 26.5527 6.8412 26.5328C6.88575 26.5129 6.93349 26.5026 6.9817 26.5027H12.8549C12.9031 26.5026 12.9508 26.5129 12.9954 26.5328C13.0399 26.5527 13.0804 26.5819 13.1145 26.6188C13.1486 26.6556 13.1756 26.6994 13.1941 26.7476C13.2125 26.7957 13.222 26.8473 13.222 26.8994C13.222 26.9516 13.2125 27.0032 13.1941 27.0513C13.1756 27.0995 13.1486 27.1433 13.1145 27.1801C13.0804 27.217 13.0399 27.2462 12.9954 27.2661C12.9508 27.2861 12.9031 27.2963 12.8549 27.2963ZM20.9304 24.9152H17.2597C17.2115 24.9153 17.1638 24.905 17.1192 24.8851C17.0747 24.8652 17.0342 24.8359 17.0001 24.7991C16.966 24.7622 16.939 24.7184 16.9205 24.6703C16.9021 24.6221 16.8926 24.5705 16.8926 24.5184C16.8926 24.4663 16.9021 24.4146 16.9205 24.3665C16.939 24.3183 16.966 24.2746 17.0001 24.2377C17.0342 24.2008 17.0747 24.1716 17.1192 24.1517C17.1638 24.1317 17.2115 24.1215 17.2597 24.1215H20.9304C20.9786 24.1215 21.0264 24.1317 21.0709 24.1517C21.1155 24.1716 21.156 24.2008 21.1901 24.2377C21.2241 24.2746 21.2512 24.3183 21.2696 24.3665C21.2881 24.4146 21.2975 24.4663 21.2975 24.5184C21.2975 24.5705 21.2881 24.6221 21.2696 24.6703C21.2512 24.7184 21.2241 24.7622 21.1901 24.7991C21.156 24.8359 21.1155 24.8652 21.0709 24.8851C21.0264 24.905 20.9786 24.9153 20.9304 24.9152ZM15.7914 24.9152H7.7158C7.66759 24.9153 7.61984 24.905 7.57529 24.8851C7.53074 24.8652 7.49026 24.8359 7.45617 24.7991C7.42208 24.7622 7.39504 24.7184 7.3766 24.6703C7.35816 24.6221 7.34868 24.5705 7.34871 24.5184C7.34868 24.4663 7.35816 24.4146 7.3766 24.3665C7.39504 24.3183 7.42208 24.2746 7.45617 24.2377C7.49026 24.2008 7.53074 24.1716 7.57529 24.1517C7.61984 24.1317 7.66759 24.1215 7.7158 24.1215H15.7914C15.8397 24.1215 15.8874 24.1317 15.932 24.1517C15.9765 24.1716 16.017 24.2008 16.0511 24.2377C16.0852 24.2746 16.1122 24.3183 16.1306 24.3665C16.1491 24.4146 16.1586 24.4663 16.1585 24.5184C16.1586 24.5705 16.1491 24.6221 16.1306 24.6703C16.1122 24.7184 16.0852 24.7622 16.0511 24.7991C16.017 24.8359 15.9765 24.8652 15.932 24.8851C15.8874 24.905 15.8397 24.9153 15.7914 24.9152ZM9.18409 29.6774H6.24751C6.04464 29.6774 5.88041 29.4998 5.88041 29.2805C5.88041 29.0612 6.04455 28.8836 6.24751 28.8836H9.18409C9.38696 28.8836 9.55119 29.0612 9.55119 29.2805C9.55119 29.4998 9.38696 29.6774 9.18409 29.6774ZM20.9304 22.5342H20.1963C20.1481 22.5342 20.1004 22.524 20.0558 22.504C20.0113 22.4841 19.9708 22.4549 19.9367 22.418C19.9026 22.3811 19.8756 22.3374 19.8571 22.2892C19.8387 22.2411 19.8292 22.1894 19.8292 22.1373C19.8292 22.0852 19.8387 22.0336 19.8571 21.9854C19.8756 21.9373 19.9026 21.8935 19.9367 21.8566C19.9708 21.8198 20.0113 21.7906 20.0558 21.7706C20.1004 21.7507 20.1481 21.7404 20.1963 21.7405H20.9304C20.9786 21.7404 21.0264 21.7507 21.0709 21.7706C21.1155 21.7906 21.156 21.8198 21.1901 21.8566C21.2241 21.8935 21.2512 21.9373 21.2696 21.9854C21.2881 22.0336 21.2975 22.0852 21.2975 22.1373C21.2976 22.1894 21.2881 22.2411 21.2696 22.2892C21.2512 22.3374 21.2242 22.3812 21.1901 22.418C21.156 22.4549 21.1155 22.4841 21.0709 22.5041C21.0264 22.524 20.9786 22.5342 20.9304 22.5342ZM16.5255 20.1532H7.7158C7.66759 20.1532 7.61984 20.143 7.57529 20.1231C7.53074 20.1031 7.49026 20.0739 7.45617 20.037C7.42208 20.0002 7.39504 19.9564 7.3766 19.9083C7.35816 19.8601 7.34868 19.8085 7.34871 19.7564C7.34868 19.7042 7.35816 19.6526 7.3766 19.6045C7.39504 19.5563 7.42208 19.5125 7.45617 19.4757C7.49026 19.4388 7.53074 19.4096 7.57529 19.3897C7.61984 19.3697 7.66759 19.3595 7.7158 19.3595H16.5256C16.5739 19.3595 16.6216 19.3697 16.6661 19.3897C16.7107 19.4096 16.7512 19.4388 16.7853 19.4757C16.8194 19.5125 16.8464 19.5563 16.8648 19.6045C16.8833 19.6526 16.8928 19.7042 16.8927 19.7564C16.8927 19.8085 16.8833 19.8601 16.8648 19.9083C16.8464 19.9564 16.8193 20.0002 16.7852 20.037C16.7511 20.0739 16.7106 20.1031 16.6661 20.1231C16.6215 20.143 16.5738 20.1532 16.5255 20.1532Z" fill="#4B3CFF"/>
<path d="M23.5 32.0583C23.4518 32.0583 23.404 32.0481 23.3595 32.0282C23.3149 32.0082 23.2745 31.979 23.2404 31.9421C23.2063 31.9053 23.1792 31.8615 23.1608 31.8134C23.1424 31.7652 23.1329 31.7136 23.1329 31.6614V5.47016C23.1329 5.41804 23.1424 5.36642 23.1608 5.31826C23.1792 5.2701 23.2063 5.22634 23.2404 5.18948C23.2745 5.15263 23.3149 5.12339 23.3595 5.10346C23.404 5.08352 23.4518 5.07328 23.5 5.0733C23.5482 5.07328 23.596 5.08353 23.6405 5.10346C23.685 5.1234 23.7255 5.15263 23.7596 5.18949C23.7937 5.22635 23.8207 5.27011 23.8391 5.31827C23.8576 5.36643 23.867 5.41804 23.867 5.47016V31.6614C23.867 31.7136 23.8576 31.7652 23.8391 31.8133C23.8207 31.8615 23.7937 31.9053 23.7596 31.9421C23.7255 31.979 23.685 32.0082 23.6405 32.0281C23.596 32.0481 23.5482 32.0583 23.5 32.0583Z" fill="#4B3CFF"/>
<path d="M41.4866 27.2963C41.4255 27.2963 41.3653 27.2798 41.3116 27.2483C41.2579 27.2168 41.2123 27.1712 41.1791 27.1158L36.7145 19.691L32.2502 27.1158C32.1405 27.301 31.9118 27.3514 31.7426 27.2328C31.661 27.1753 31.6039 27.0851 31.5837 26.9821C31.5635 26.8791 31.582 26.7716 31.635 26.6833L36.407 18.7465C36.5419 18.521 36.8873 18.521 37.0221 18.7465L41.7941 26.6833C41.8471 26.7716 41.8656 26.8791 41.8454 26.9821C41.8253 27.0851 41.7681 27.1753 41.6865 27.2328C41.625 27.2761 41.5554 27.2963 41.4866 27.2963Z" fill="#4B3CFF"/>
<path d="M29.0062 27.2963C28.9397 27.2963 28.8745 27.2768 28.8175 27.2399C28.7605 27.203 28.7138 27.1501 28.6825 27.0867C28.6511 27.0234 28.6362 26.9521 28.6395 26.8803C28.6427 26.8086 28.6638 26.7391 28.7007 26.6793L31.6372 21.922C31.6708 21.8676 31.7162 21.8231 31.7695 21.7923C31.8228 21.7615 31.8822 21.7454 31.9427 21.7454C32.0031 21.7454 32.0626 21.7615 32.1158 21.7923C32.1691 21.8231 32.2145 21.8676 32.2481 21.922L33.695 24.2665C33.7489 24.3541 33.7685 24.4612 33.7494 24.5644C33.7303 24.6676 33.6741 24.7584 33.5932 24.8168C33.4246 24.9369 33.1968 24.8896 33.0841 24.7067L31.9427 22.857L29.3115 27.1196C29.278 27.1739 29.2326 27.2185 29.1793 27.2493C29.1261 27.2802 29.0666 27.2963 29.0062 27.2963ZM29.0062 21.7406C27.9937 21.7406 27.1708 20.8504 27.1708 19.7564C27.1708 18.6623 27.9937 17.7722 29.0062 17.7722C30.0184 17.7722 30.8416 18.6623 30.8416 19.7564C30.8416 20.8504 30.0185 21.7406 29.0062 21.7406ZM29.0062 18.5659C28.3989 18.5659 27.905 19.0999 27.905 19.7564C27.905 20.4128 28.3989 20.9468 29.0062 20.9468C29.6134 20.9468 30.1074 20.4128 30.1074 19.7564C30.1074 19.0999 29.6135 18.5659 29.0062 18.5659Z" fill="#4B3CFF"/>
<path d="M42.2209 27.2963H26.0696C25.8666 27.2963 25.7024 27.1189 25.7024 26.8994V16.5817C25.7024 16.5295 25.7118 16.4779 25.7303 16.4297C25.7487 16.3816 25.7758 16.3378 25.8099 16.301C25.844 16.2641 25.8845 16.2349 25.929 16.2149C25.9736 16.195 26.0214 16.1848 26.0696 16.1848H42.2208C42.269 16.1848 42.3167 16.195 42.3613 16.215C42.4058 16.2349 42.4463 16.2641 42.4804 16.301C42.5145 16.3379 42.5415 16.3816 42.5599 16.4298C42.5784 16.4779 42.5878 16.5296 42.5878 16.5817V26.8994C42.5878 26.9516 42.5784 27.0032 42.56 27.0513C42.5416 27.0995 42.5145 27.1433 42.4805 27.1801C42.4464 27.217 42.4059 27.2462 42.3614 27.2662C42.3168 27.2861 42.2691 27.2963 42.2209 27.2963ZM26.4366 26.5027H41.8538V16.9785H26.4366V26.5027Z" fill="#4B3CFF"/>
<path d="M42.2209 8.24801H26.0696C25.8666 8.24801 25.7024 8.07056 25.7024 7.85114C25.7024 7.63173 25.8666 7.45428 26.0696 7.45428H42.2208C42.4237 7.45428 42.5878 7.63173 42.5878 7.85114C42.5878 8.07056 42.4237 8.24801 42.2209 8.24801Z" fill="#4B3CFF"/>
<path d="M42.2209 14.5975C42.1727 14.5975 42.1249 14.5873 42.0804 14.5674C42.0358 14.5474 41.9953 14.5182 41.9612 14.4813C41.9272 14.4445 41.9001 14.4007 41.8817 14.3525C41.8633 14.3044 41.8538 14.2528 41.8539 14.2006V7.85127C41.8539 7.63195 42.0179 7.45441 42.2209 7.45441C42.4238 7.45441 42.5879 7.63185 42.5879 7.85127V14.2006C42.5879 14.2528 42.5784 14.3044 42.56 14.3525C42.5416 14.4007 42.5146 14.4444 42.4805 14.4813C42.4464 14.5182 42.4059 14.5474 42.3614 14.5673C42.3168 14.5873 42.2691 14.5975 42.2209 14.5975Z" fill="#4B3CFF"/>
<path d="M42.2209 14.5975H26.0696C25.8666 14.5975 25.7024 14.4201 25.7024 14.2006C25.7024 13.9812 25.8666 13.8038 26.0696 13.8038H42.2208C42.4237 13.8038 42.5878 13.9812 42.5878 14.2006C42.5878 14.4201 42.4237 14.5975 42.2209 14.5975Z" fill="#4B3CFF"/>
<path d="M40.0184 11.4227H26.0696C25.8666 11.4227 25.7024 11.2452 25.7024 11.0258C25.7024 10.8064 25.8666 10.629 26.0696 10.629H40.0184C40.2212 10.629 40.3854 10.8064 40.3854 11.0258C40.3854 11.2452 40.2212 11.4227 40.0184 11.4227Z" fill="#4B3CFF"/>
<path d="M42.2209 29.6774H26.0696C25.8666 29.6774 25.7024 29.4998 25.7024 29.2805C25.7024 29.0612 25.8666 28.8837 26.0696 28.8837H42.2208C42.4237 28.8837 42.5878 29.0612 42.5878 29.2805C42.5878 29.4998 42.4237 29.6774 42.2209 29.6774Z" fill="#4B3CFF"/>
</svg>
