<svg width="67" height="67" viewBox="0 0 67 67" fill="none" xmlns="http://www.w3.org/2000/svg">
<path fill-rule="evenodd" clip-rule="evenodd" d="M26.7788 8.93401C26.099 9.51337 25.7591 9.80309 25.396 10.0464C24.5638 10.6042 23.6292 10.9913 22.6463 11.1854C22.2176 11.27 21.7723 11.3055 20.8819 11.3766C18.6448 11.5551 17.5261 11.6444 16.5929 11.974C14.4344 12.7364 12.7366 14.4343 11.9741 16.5928C11.6445 17.526 11.5553 18.6446 11.3767 20.8818C11.3057 21.7722 11.2701 22.2174 11.1855 22.6462C10.9914 23.6291 10.6043 24.5637 10.0465 25.3959C9.80321 25.7589 9.51352 26.0989 8.93413 26.7787C7.47845 28.4869 6.75058 29.3409 6.32379 30.234C5.33657 32.2995 5.33657 34.7003 6.32379 36.7659C6.7506 37.659 7.47845 38.5129 8.93413 40.2211C9.51343 40.9009 9.80321 41.2409 10.0465 41.6039C10.6043 42.4361 10.9914 43.3707 11.1855 44.3536C11.2701 44.7824 11.3057 45.2277 11.3767 46.118C11.5553 48.3552 11.6445 49.4738 11.9741 50.4071C12.7366 52.5656 14.4344 54.2635 16.5929 55.0259C17.5261 55.3553 18.6448 55.4447 20.8819 55.6233C21.7723 55.6942 22.2176 55.73 22.6463 55.8145C23.6292 56.0086 24.5638 56.3958 25.396 56.9536C25.7591 57.1967 26.099 57.4865 26.7788 58.0658C28.487 59.5216 29.341 60.2494 30.2341 60.6762C32.2996 61.6634 34.7005 61.6634 36.766 60.6762C37.6591 60.2494 38.513 59.5216 40.2213 58.0658C40.901 57.4865 41.2411 57.1967 41.604 56.9536C42.4362 56.3958 43.3708 56.0086 44.3538 55.8145C44.7826 55.73 45.2278 55.6942 46.1181 55.6233C48.3553 55.4447 49.474 55.3553 50.4072 55.0259C52.5657 54.2635 54.2636 52.5656 55.026 50.4071C55.3554 49.4738 55.4448 48.3552 55.6234 46.118C55.6944 45.2277 55.7301 44.7824 55.8147 44.3536C56.0087 43.3707 56.3959 42.4361 56.9537 41.6039C57.1968 41.2409 57.4866 40.9009 58.0659 40.2211C59.5217 38.5129 60.2495 37.659 60.6764 36.7659C61.6635 34.7003 61.6635 32.2995 60.6764 30.234C60.2495 29.3409 59.5217 28.4869 58.0659 26.7787C57.4866 26.0989 57.1968 25.7589 56.9537 25.3959C56.3959 24.5637 56.0087 23.6291 55.8147 22.6462C55.7301 22.2174 55.6944 21.7722 55.6234 20.8818C55.4448 18.6446 55.3554 17.526 55.026 16.5928C54.2636 14.4343 52.5657 12.7364 50.4072 11.974C49.474 11.6444 48.3553 11.5551 46.1181 11.3766C45.2278 11.3055 44.7826 11.27 44.3538 11.1854C43.3708 10.9913 42.4362 10.6042 41.604 10.0464C41.2411 9.80309 40.901 9.5134 40.2213 8.93401C38.513 7.47833 37.6591 6.75048 36.766 6.32366C34.7005 5.33645 32.2996 5.33645 30.2341 6.32366C29.341 6.75045 28.487 7.47833 26.7788 8.93401ZM45.7094 27.5345C46.5966 26.6472 46.5966 25.2087 45.7094 24.3214C44.8222 23.4341 43.3834 23.4341 42.4962 24.3214L28.9561 37.8616L24.5038 33.4095C23.6165 32.5223 22.1779 32.5223 21.2907 33.4095C20.4034 34.2967 20.4034 35.7352 21.2907 36.6227L27.3494 42.6814C28.2366 43.5686 29.6752 43.5686 30.5627 42.6814L45.7094 27.5345Z" fill="white"/>
</svg>
